<svg width="65" height="39" viewBox="0 0 65 39" fill="none" xmlns="http://www.w3.org/2000/svg">
<mask id="path-1-outside-1_2_68" maskUnits="userSpaceOnUse" x="-0.666748" y="-1" width="66" height="41" fill="black">
<rect fill="white" x="-0.666748" y="-1" width="66" height="41"/>
<path d="M16.4759 38.95C13.6093 38.95 11.1759 38.4833 9.17594 37.55C7.17594 36.5833 5.54261 35.2833 4.27594 33.65C3.00927 31.9833 2.07594 30.0833 1.47594 27.95C0.909273 25.7833 0.62594 23.5167 0.62594 21.15V18.35C0.62594 14.9833 1.19261 11.95 2.32594 9.25C3.45927 6.55 5.19261 4.41667 7.52594 2.85C9.85927 1.25 12.8426 0.449998 16.4759 0.449998C20.0759 0.449998 23.0426 1.25 25.3759 2.85C27.7093 4.41667 29.4259 6.55 30.5259 9.25C31.6593 11.95 32.2259 14.9833 32.2259 18.35V21.15C32.2259 23.5167 31.9259 25.7833 31.3259 27.95C30.7593 30.0833 29.8426 31.9833 28.5759 33.65C27.3426 35.2833 25.7259 36.5833 23.7259 37.55C21.7259 38.4833 19.3093 38.95 16.4759 38.95ZM16.4759 32.45C19.4426 32.45 21.6259 31.4333 23.0259 29.4C24.4259 27.3333 25.1259 24.1333 25.1259 19.8C25.1259 15.2 24.4093 11.9167 22.9759 9.95C21.5426 7.95 19.3759 6.95 16.4759 6.95C13.5426 6.95 11.3426 7.95 9.87594 9.95C8.44261 11.9167 7.72594 15.1667 7.72594 19.7C7.72594 24.0667 8.44261 27.2833 9.87594 29.35C11.3093 31.4167 13.5093 32.45 16.4759 32.45ZM38.5689 38V31C38.5689 29.4667 38.8022 28.1333 39.2689 27C39.7689 25.8667 40.5689 24.8667 41.6689 24C42.8022 23.1 44.2856 22.25 46.1189 21.45L52.3189 18.7C53.8522 18 55.0189 17.15 55.8189 16.15C56.6522 15.1167 57.0689 13.8 57.0689 12.2C57.0689 10.4333 56.5356 9.03333 55.4689 8C54.4356 6.93333 52.9522 6.4 51.0189 6.4C49.0856 6.4 47.5856 6.93333 46.5189 8C45.4856 9.06667 44.9689 10.55 44.9689 12.45H38.1189C38.1189 10.1833 38.6022 8.15 39.5689 6.35C40.5356 4.51667 41.9689 3.08333 43.8689 2.05C45.7689 0.983331 48.1522 0.449998 51.0189 0.449998C53.8856 0.449998 56.2689 0.966665 58.1689 2C60.0689 3.03333 61.5022 4.41667 62.4689 6.15C63.4356 7.85 63.9189 9.75 63.9189 11.85V12.5C63.9189 15.2333 63.1522 17.5167 61.6189 19.35C60.0856 21.15 57.8356 22.7167 54.8689 24.05L48.6689 26.8C47.5022 27.3 46.6856 27.8333 46.2189 28.4C45.7522 28.9333 45.5189 29.6667 45.5189 30.6V33.8L43.8189 31.95H64.0689V38H38.5689Z"/>
</mask>
<path d="M9.17593 37.55L8.74072 38.4504L8.75305 38.4562L9.17593 37.55ZM4.27594 33.65L3.47974 34.2551L3.48572 34.2628L4.27594 33.65ZM1.47595 27.95L0.508484 28.203L0.510803 28.2119L0.513275 28.2207L1.47595 27.95ZM2.32593 9.25L1.40387 8.86296L2.32593 9.25ZM7.52594 2.85L8.0834 3.68026L8.09146 3.67473L7.52594 2.85ZM25.3759 2.85L24.8104 3.67477L24.8185 3.68022L25.3759 2.85ZM30.5259 9.25L29.5998 9.62732L29.6039 9.63704L30.5259 9.25ZM31.3259 27.95L30.3622 27.6831L30.3595 27.6933L31.3259 27.95ZM28.5759 33.65L27.7798 33.0449L27.7779 33.0474L28.5759 33.65ZM23.726 37.55L24.1489 38.4563L24.1611 38.4503L23.726 37.55ZM23.0259 29.4L23.8496 29.9671L23.8539 29.9608L23.0259 29.4ZM22.976 9.95L22.1631 10.5325L22.1678 10.539L22.976 9.95ZM9.87595 9.95L9.06952 9.35863L9.06781 9.36101L9.87595 9.95ZM9.87595 29.35L9.05423 29.9199L9.87595 29.35ZM16.476 37.95C13.7135 37.95 11.433 37.4998 9.59882 36.6438L8.75305 38.4562C10.9188 39.4669 13.5051 39.95 16.476 39.95V37.95ZM9.61111 36.6497C7.73944 35.745 6.23129 34.5396 5.06616 33.0372L3.48572 34.2628C4.85394 36.0271 6.61243 37.4216 8.74078 38.4503L9.61111 36.6497ZM5.07211 33.0449C3.88583 31.484 3.00659 29.6988 2.4386 27.6793L0.513275 28.2207C1.14526 30.4678 2.13272 32.4827 3.47977 34.2551L5.07211 33.0449ZM2.44339 27.697C1.89954 25.6175 1.62595 23.4361 1.62595 21.15H-0.374054C-0.374054 23.5972 -0.0809937 25.9492 0.508484 28.203L2.44339 27.697ZM1.62595 21.15V18.35H-0.374054V21.15H1.62595ZM1.62595 18.35C1.62595 15.0965 2.17325 12.1975 3.24802 9.63704L1.40387 8.86296C0.211975 11.7025 -0.374054 14.8702 -0.374054 18.35H1.62595ZM3.24802 9.63704C4.30905 7.10925 5.91931 5.13324 8.08337 3.68022L6.96851 2.01978C4.46591 3.70009 2.6095 5.99075 1.40387 8.86296L3.24802 9.63704ZM8.09146 3.67473C10.2167 2.21742 12.9874 1.45 16.476 1.45V-0.550002C12.6979 -0.550002 9.50183 0.282573 6.96042 2.02527L8.09146 3.67473ZM16.476 1.45C19.929 1.45 22.6837 2.21645 24.8104 3.67473L25.9415 2.02527C23.4015 0.283545 20.2229 -0.550002 16.476 -0.550002V1.45ZM24.8185 3.68022C26.9802 5.13165 28.572 7.1043 29.5999 9.62729L31.452 8.8727C30.2799 5.9957 28.4384 3.70168 25.9334 2.01978L24.8185 3.68022ZM29.6039 9.63704C30.6786 12.1975 31.226 15.0965 31.226 18.35H33.226C33.226 14.8702 32.6399 11.7025 31.448 8.86296L29.6039 9.63704ZM31.226 18.35V21.15H33.226V18.35H31.226ZM31.226 21.15C31.226 23.4312 30.9369 25.6078 30.3622 27.6831L32.2897 28.2169C32.915 25.9588 33.226 23.6021 33.226 21.15H31.226ZM30.3595 27.6933C29.8244 29.7075 28.9632 31.4877 27.7798 33.0449L29.3721 34.2551C30.722 32.4789 31.6941 30.4592 32.2924 28.2067L30.3595 27.6933ZM27.7779 33.0474C26.6482 34.5435 25.1604 35.746 23.2908 36.6497L24.1611 38.4503C26.2915 37.4206 28.037 36.0232 29.374 34.2526L27.7779 33.0474ZM23.3031 36.6438C21.4675 37.5004 19.2031 37.95 16.476 37.95V39.95C19.4154 39.95 21.9844 39.4662 24.1488 38.4562L23.3031 36.6438ZM16.476 33.45C19.6959 33.45 22.2238 32.3284 23.8496 29.9671L22.2023 28.8329C21.0281 30.5383 19.1893 31.45 16.476 31.45V33.45ZM23.8539 29.9608C25.4217 27.6464 26.1259 24.2032 26.1259 19.8H24.1259C24.1259 24.0635 23.4302 27.0203 22.198 28.8392L23.8539 29.9608ZM26.1259 19.8C26.1259 15.1498 25.4119 11.5945 23.7841 9.36101L22.1678 10.539C23.4067 12.2388 24.1259 15.2502 24.1259 19.8H26.1259ZM23.7888 9.36748C22.1324 7.05628 19.6327 5.95 16.476 5.95V7.95C19.1192 7.95 20.9528 8.84372 22.1631 10.5325L23.7888 9.36748ZM16.476 5.95C13.2901 5.95 10.7605 7.05281 9.06955 9.35863L10.6823 10.5414C11.9247 8.84719 13.7951 7.95 16.476 7.95V5.95ZM9.06781 9.36101C7.44122 11.5928 6.72595 15.1126 6.72595 19.7H8.72595C8.72595 15.2207 9.444 12.2405 10.6841 10.539L9.06781 9.36101ZM6.72595 19.7C6.72595 24.1374 7.44699 27.6025 9.05423 29.9199L10.6977 28.7801C9.4382 26.9642 8.72595 23.9959 8.72595 19.7H6.72595ZM9.05423 29.9199C10.7098 32.307 13.2489 33.45 16.476 33.45V31.45C13.7696 31.45 11.9087 30.5263 10.6977 28.7801L9.05423 29.9199ZM38.5689 38H37.5689V39H38.5689V38ZM39.2689 27L38.354 26.5964L38.349 26.6077L38.3442 26.6193L39.2689 27ZM41.6689 24L42.2878 24.7855L42.2908 24.7831L41.6689 24ZM46.1189 21.45L46.5189 22.3666L46.5244 22.3641L46.1189 21.45ZM52.3189 18.7L52.7244 19.6142L52.7342 19.6097L52.3189 18.7ZM55.8189 16.15L55.0405 15.5222L55.0381 15.5253L55.8189 16.15ZM55.4689 8L54.7507 8.6958L54.7617 8.7072L54.7731 8.71824L55.4689 8ZM46.5189 8L45.8118 7.29289L45.8062 7.2985L45.8007 7.3042L46.5189 8ZM44.9689 12.45V13.45H45.9689V12.45H44.9689ZM38.1189 12.45H37.1189V13.45H38.1189V12.45ZM39.5689 6.35L40.4499 6.82314L40.4535 6.81641L39.5689 6.35ZM43.8689 2.05L44.3467 2.92856L44.3584 2.92198L43.8689 2.05ZM58.1689 2L58.6467 1.12152V1.12151L58.1689 2ZM62.4689 6.15L61.5955 6.63708L61.5996 6.6443L62.4689 6.15ZM61.6189 19.35L62.3802 19.9985L62.386 19.9916L61.6189 19.35ZM54.8689 24.05L55.2744 24.9641L55.2788 24.9621L54.8689 24.05ZM48.6689 26.8L49.0629 27.7192L49.0744 27.7141L48.6689 26.8ZM46.2189 28.4L46.9715 29.0585L46.9813 29.0472L46.9908 29.0357L46.2189 28.4ZM45.5189 33.8L44.7826 34.4766L46.5189 36.3662V33.8H45.5189ZM43.8189 31.95V30.95H41.5419L43.0826 32.6266L43.8189 31.95ZM64.0689 31.95H65.0689V30.95H64.0689V31.95ZM64.0689 38V39H65.0689V38H64.0689ZM39.5689 38V31H37.5689V38H39.5689ZM39.5689 31C39.5689 29.5656 39.7874 28.3671 40.1936 27.3807L38.3442 26.6193C37.817 27.8995 37.5689 29.3677 37.5689 31H39.5689ZM40.1838 27.4036C40.6096 26.4385 41.2992 25.5644 42.2878 24.7855L41.05 23.2145C39.8386 24.169 38.9282 25.2949 38.354 26.5964L40.1838 27.4036ZM42.2908 24.7831C43.336 23.9531 44.7371 23.144 46.5189 22.3665L45.719 20.5335C43.8341 21.356 42.2685 22.2469 41.047 23.2169L42.2908 24.7831ZM46.5244 22.3641L52.7244 19.6141L51.9135 17.7859L45.7134 20.5359L46.5244 22.3641ZM52.7342 19.6097C54.3667 18.8644 55.676 17.9294 56.5998 16.7747L55.0381 15.5253C54.3618 16.3706 53.3377 17.1356 51.9036 17.7903L52.7342 19.6097ZM56.5973 16.7778C57.6018 15.5322 58.0689 13.9798 58.0689 12.2H56.0689C56.0689 13.6202 55.7026 14.7012 55.0405 15.5222L56.5973 16.7778ZM58.0689 12.2C58.0689 10.218 57.4623 8.53878 56.1647 7.28176L54.7731 8.71824C55.6089 9.52788 56.0689 10.6487 56.0689 12.2H58.0689ZM56.1872 7.3042C54.9132 5.9892 53.1374 5.4 51.0189 5.4V7.4C52.7671 7.4 53.9579 7.87746 54.7507 8.6958L56.1872 7.3042ZM51.0189 5.4C48.8986 5.4 47.1149 5.9898 45.8118 7.29289L47.226 8.70711C48.0562 7.87687 49.2726 7.4 51.0189 7.4V5.4ZM45.8007 7.3042C44.54 8.60549 43.9689 10.366 43.9689 12.45H45.9689C45.9689 10.734 46.4311 9.52784 47.2372 8.69579L45.8007 7.3042ZM44.9689 11.45H38.1189V13.45H44.9689V11.45ZM39.1189 12.45C39.1189 10.33 39.5696 8.46227 40.4499 6.82313L38.6879 5.87687C37.6349 7.83773 37.1189 10.0366 37.1189 12.45H39.1189ZM40.4535 6.81641C41.324 5.1654 42.612 3.87192 44.3467 2.92848L43.3911 1.17151C41.3258 2.29475 39.7471 3.86793 38.6843 5.88359L40.4535 6.81641ZM44.3584 2.92198C46.0691 1.96164 48.2713 1.45 51.0189 1.45V-0.550002C48.0332 -0.550002 45.4688 0.00501919 43.3794 1.17801L44.3584 2.92198ZM51.0189 1.45C53.771 1.45 55.9778 1.94664 57.6911 2.87848L58.6467 1.12151C56.5601 -0.0133066 54.0001 -0.550002 51.0189 -0.550002V1.45ZM57.6911 2.87848C59.4404 3.82983 60.7293 5.08377 61.5956 6.63707L63.3423 5.66293C62.2752 3.74956 60.6974 2.23683 58.6467 1.12152L57.6911 2.87848ZM61.5996 6.6443C62.4743 8.18256 62.9189 9.9101 62.9189 11.85H64.9189C64.9189 9.5899 64.3969 7.51744 63.3382 5.6557L61.5996 6.6443ZM62.9189 11.85V12.5H64.9189V11.85H62.9189ZM62.9189 12.5C62.9189 15.0344 62.2133 17.0806 60.8518 18.7084L62.386 19.9916C64.0912 17.9527 64.9189 15.4322 64.9189 12.5H62.9189ZM60.8577 18.7015C59.4495 20.3546 57.3383 21.8438 54.459 23.1379L55.2788 24.9621C58.3329 23.5895 60.7217 21.9454 62.3802 19.9985L60.8577 18.7015ZM54.4635 23.1359L48.2635 25.8859L49.0744 27.7141L55.2744 24.9641L54.4635 23.1359ZM48.275 25.8809C47.0541 26.4041 46.0642 27.0148 45.447 27.7643L46.9908 29.0357C47.3069 28.6518 47.9503 28.1959 49.0628 27.7191L48.275 25.8809ZM45.4663 27.7415C44.7953 28.5084 44.5189 29.5026 44.5189 30.6H46.5189C46.5189 29.8308 46.7092 29.3583 46.9715 29.0585L45.4663 27.7415ZM44.5189 30.6V33.8H46.5189V30.6H44.5189ZM46.2552 33.1234L44.5552 31.2734L43.0826 32.6266L44.7826 34.4766L46.2552 33.1234ZM43.8189 32.95H64.0689V30.95H43.8189V32.95ZM63.0689 31.95V38H65.0689V31.95H63.0689ZM64.0689 37H38.5689V39H64.0689V37Z" fill="#FCA702" mask="url(#path-1-outside-1_2_68)"/>
</svg>
