<svg width="33" height="33" viewBox="0 0 33 33" fill="none" xmlns="http://www.w3.org/2000/svg">
<rect x="0.803955" y="0.311035" width="32" height="32.35" rx="16" fill="#FCA702"/>
<path d="M16.804 25.661L15.354 24.361C13.6706 22.8444 12.279 21.536 11.179 20.436C10.079 19.336 9.20396 18.3485 8.55396 17.4735C7.90395 16.5985 7.44979 15.7944 7.19146 15.061C6.93312 14.3277 6.80396 13.5777 6.80396 12.811C6.80396 11.2444 7.32896 9.93604 8.37896 8.88604C9.42896 7.83604 10.7373 7.31104 12.304 7.31104C13.1706 7.31104 13.9956 7.49437 14.779 7.86104C15.5623 8.2277 16.2373 8.74437 16.804 9.41104C17.3706 8.74437 18.0456 8.2277 18.829 7.86104C19.6123 7.49437 20.4373 7.31104 21.304 7.31104C22.8706 7.31104 24.179 7.83604 25.229 8.88604C26.279 9.93604 26.804 11.2444 26.804 12.811C26.804 13.5777 26.6748 14.3277 26.4165 15.061C26.1581 15.7944 25.704 16.5985 25.054 17.4735C24.404 18.3485 23.529 19.336 22.429 20.436C21.329 21.536 19.9373 22.8444 18.254 24.361L16.804 25.661Z" fill="white"/>
</svg>
