<svg width="14" height="15" viewBox="0 0 14 15" fill="none" xmlns="http://www.w3.org/2000/svg">
<path d="M1.58805 14.3371C1.19484 14.3371 0.858233 14.197 0.578221 13.917C0.298209 13.637 0.158203 13.3004 0.158203 12.9072V2.89827C0.158203 2.50506 0.298209 2.16845 0.578221 1.88844C0.858233 1.60843 1.19484 1.46842 1.58805 1.46842H2.30298V0.0385742H3.73282V1.46842H9.45222V0.0385742H10.8821V1.46842H11.597C11.9902 1.46842 12.3268 1.60843 12.6068 1.88844C12.8868 2.16845 13.0268 2.50506 13.0268 2.89827V12.9072C13.0268 13.3004 12.8868 13.637 12.6068 13.917C12.3268 14.197 11.9902 14.3371 11.597 14.3371H1.58805ZM1.58805 12.9072H11.597V5.75797H1.58805V12.9072ZM1.58805 4.32812H11.597V2.89827H1.58805V4.32812ZM6.59252 8.61766C6.38996 8.61766 6.22016 8.54915 6.08314 8.41212C5.94611 8.27509 5.8776 8.1053 5.8776 7.90274C5.8776 7.70018 5.94611 7.53038 6.08314 7.39336C6.22016 7.25633 6.38996 7.18781 6.59252 7.18781C6.79508 7.18781 6.96488 7.25633 7.1019 7.39336C7.23893 7.53038 7.30744 7.70018 7.30744 7.90274C7.30744 8.1053 7.23893 8.27509 7.1019 8.41212C6.96488 8.54915 6.79508 8.61766 6.59252 8.61766ZM3.73282 8.61766C3.53026 8.61766 3.36047 8.54915 3.22344 8.41212C3.08641 8.27509 3.0179 8.1053 3.0179 7.90274C3.0179 7.70018 3.08641 7.53038 3.22344 7.39336C3.36047 7.25633 3.53026 7.18781 3.73282 7.18781C3.93539 7.18781 4.10518 7.25633 4.24221 7.39336C4.37923 7.53038 4.44775 7.70018 4.44775 7.90274C4.44775 8.1053 4.37923 8.27509 4.24221 8.41212C4.10518 8.54915 3.93539 8.61766 3.73282 8.61766ZM9.45222 8.61766C9.24965 8.61766 9.07986 8.54915 8.94283 8.41212C8.80581 8.27509 8.73729 8.1053 8.73729 7.90274C8.73729 7.70018 8.80581 7.53038 8.94283 7.39336C9.07986 7.25633 9.24965 7.18781 9.45222 7.18781C9.65478 7.18781 9.82457 7.25633 9.9616 7.39336C10.0986 7.53038 10.1671 7.70018 10.1671 7.90274C10.1671 8.1053 10.0986 8.27509 9.9616 8.41212C9.82457 8.54915 9.65478 8.61766 9.45222 8.61766ZM6.59252 11.4774C6.38996 11.4774 6.22016 11.4088 6.08314 11.2718C5.94611 11.1348 5.8776 10.965 5.8776 10.7624C5.8776 10.5599 5.94611 10.3901 6.08314 10.2531C6.22016 10.116 6.38996 10.0475 6.59252 10.0475C6.79508 10.0475 6.96488 10.116 7.1019 10.2531C7.23893 10.3901 7.30744 10.5599 7.30744 10.7624C7.30744 10.965 7.23893 11.1348 7.1019 11.2718C6.96488 11.4088 6.79508 11.4774 6.59252 11.4774ZM3.73282 11.4774C3.53026 11.4774 3.36047 11.4088 3.22344 11.2718C3.08641 11.1348 3.0179 10.965 3.0179 10.7624C3.0179 10.5599 3.08641 10.3901 3.22344 10.2531C3.36047 10.116 3.53026 10.0475 3.73282 10.0475C3.93539 10.0475 4.10518 10.116 4.24221 10.2531C4.37923 10.3901 4.44775 10.5599 4.44775 10.7624C4.44775 10.965 4.37923 11.1348 4.24221 11.2718C4.10518 11.4088 3.93539 11.4774 3.73282 11.4774ZM9.45222 11.4774C9.24965 11.4774 9.07986 11.4088 8.94283 11.2718C8.80581 11.1348 8.73729 10.965 8.73729 10.7624C8.73729 10.5599 8.80581 10.3901 8.94283 10.2531C9.07986 10.116 9.24965 10.0475 9.45222 10.0475C9.65478 10.0475 9.82457 10.116 9.9616 10.2531C10.0986 10.3901 10.1671 10.5599 10.1671 10.7624C10.1671 10.965 10.0986 11.1348 9.9616 11.2718C9.82457 11.4088 9.65478 11.4774 9.45222 11.4774Z" fill="#FCA702"/>
</svg>
