<svg width="18" height="18" viewBox="0 0 18 18" fill="none" xmlns="http://www.w3.org/2000/svg">
<mask id="mask0_147_445" style="mask-type:alpha" maskUnits="userSpaceOnUse" x="0" y="0" width="18" height="18">
<rect x="0.158203" y="0.517578" width="17.1582" height="17.1582" fill="#D9D9D9"/>
</mask>
<g mask="url(#mask0_147_445)">
<path d="M8.7373 16.2459C7.47427 16.2459 6.44358 16.0463 5.64525 15.6472C4.84692 15.248 4.44775 14.7326 4.44775 14.1011C4.44775 13.6841 4.62053 13.3207 4.96607 13.0109C5.31162 12.7011 5.78824 12.4568 6.39592 12.2781L6.807 13.6364C6.60444 13.696 6.41975 13.7705 6.25294 13.8598C6.08612 13.9492 5.97293 14.0296 5.91335 14.1011C6.06825 14.2918 6.42571 14.4586 6.98573 14.6016C7.54576 14.7446 8.12961 14.8161 8.7373 14.8161C9.34498 14.8161 9.93182 14.7446 10.4978 14.6016C11.0638 14.4586 11.4242 14.2918 11.5791 14.1011C11.5195 14.0296 11.4063 13.9492 11.2395 13.8598C11.0727 13.7705 10.888 13.696 10.6855 13.6364L11.0965 12.2781C11.7042 12.4568 12.1779 12.7011 12.5175 13.0109C12.857 13.3207 13.0268 13.6841 13.0268 14.1011C13.0268 14.7326 12.6277 15.248 11.8293 15.6472C11.031 16.0463 10.0003 16.2459 8.7373 16.2459ZM8.7373 11.4738C8.95178 11.0806 9.17817 10.7201 9.41648 10.3925C9.65478 10.0648 9.88714 9.75201 10.1135 9.45412C10.5544 8.88218 10.9059 8.36684 11.168 7.9081C11.4302 7.44935 11.5612 6.88039 11.5612 6.20122C11.5612 5.4148 11.2872 4.74754 10.7391 4.19943C10.191 3.65132 9.52372 3.37727 8.7373 3.37727C7.95088 3.37727 7.28362 3.65132 6.73551 4.19943C6.1874 4.74754 5.91335 5.4148 5.91335 6.20122C5.91335 6.88039 6.04442 7.44935 6.30656 7.9081C6.5687 8.36684 6.9202 8.88218 7.36107 9.45412C7.58746 9.75201 7.81981 10.0648 8.05812 10.3925C8.29643 10.7201 8.52282 11.0806 8.7373 11.4738ZM8.7373 14.1011C8.60623 14.1011 8.48707 14.0624 8.37984 13.985C8.2726 13.9075 8.19515 13.8032 8.14749 13.6722C7.87343 12.8262 7.52789 12.1172 7.11085 11.5453C6.69381 10.9733 6.28868 10.4252 5.89548 9.90095C5.51418 9.37667 5.18353 8.83452 4.90352 8.2745C4.62351 7.71447 4.4835 7.02338 4.4835 6.20122C4.4835 5.00968 4.89458 4.00282 5.71674 3.18066C6.53891 2.3585 7.54576 1.94742 8.7373 1.94742C9.92884 1.94742 10.9357 2.3585 11.7579 3.18066C12.58 4.00282 12.9911 5.00968 12.9911 6.20122C12.9911 7.02338 12.8541 7.71447 12.58 8.2745C12.306 8.83452 11.9723 9.37667 11.5791 9.90095C11.1978 10.4252 10.7957 10.9733 10.3727 11.5453C9.94969 12.1172 9.60117 12.8262 9.32711 13.6722C9.27945 13.8032 9.202 13.9075 9.09476 13.985C8.98752 14.0624 8.86837 14.1011 8.7373 14.1011ZM8.7373 7.72043C9.15434 7.72043 9.5118 7.57149 9.80968 7.2736C10.1076 6.97572 10.2565 6.61826 10.2565 6.20122C10.2565 5.78418 10.1076 5.42672 9.80968 5.12883C9.5118 4.83095 9.15434 4.682 8.7373 4.682C8.32026 4.682 7.9628 4.83095 7.66491 5.12883C7.36703 5.42672 7.21808 5.78418 7.21808 6.20122C7.21808 6.61826 7.36703 6.97572 7.66491 7.2736C7.9628 7.57149 8.32026 7.72043 8.7373 7.72043Z" fill="#1C1B1F"/>
</g>
</svg>
