<svg width="18" height="18" viewBox="0 0 18 18" fill="none" xmlns="http://www.w3.org/2000/svg">
<mask id="mask0_37_76" style="mask-type:alpha" maskUnits="userSpaceOnUse" x="0" y="0" width="18" height="18">
<rect x="0.817627" y="0.608727" width="17.1582" height="17.1582" fill="#D9D9D9"/>
</mask>
<g mask="url(#mask0_37_76)">
<path d="M1.53271 14.9072V12.0475C1.53271 11.6424 1.67272 11.3028 1.95273 11.0287C2.23274 10.7547 2.56935 10.6177 2.96256 10.6177H5.30394C5.54225 10.6177 5.76864 10.6772 5.98312 10.7964C6.19759 10.9155 6.37037 11.0764 6.50144 11.279C6.84698 11.7437 7.27296 12.1071 7.77936 12.3692C8.28577 12.6314 8.82494 12.7624 9.39688 12.7624C9.98073 12.7624 10.5259 12.6314 11.0323 12.3692C11.5387 12.1071 11.9587 11.7437 12.2923 11.279C12.4472 11.0764 12.6289 10.9155 12.8375 10.7964C13.046 10.6772 13.2634 10.6177 13.4898 10.6177H15.8312C16.2363 10.6177 16.5759 10.7547 16.85 11.0287C17.124 11.3028 17.261 11.6424 17.261 12.0475V14.9072H12.2566V13.2808C11.8395 13.5786 11.3897 13.805 10.9072 13.9599C10.4246 14.1148 9.92116 14.1923 9.39688 14.1923C8.88452 14.1923 8.38407 14.1119 7.89554 13.951C7.40701 13.7901 6.95422 13.5608 6.53718 13.2629V14.9072H1.53271ZM9.39688 12.0475C8.94409 12.0475 8.51514 11.9433 8.11002 11.7347C7.70489 11.5262 7.3653 11.2373 7.09125 10.8679C6.88869 10.57 6.63549 10.3347 6.33164 10.1619C6.0278 9.98913 5.69715 9.90274 5.33969 9.90274C5.60182 9.46187 6.15589 9.11334 7.00188 8.85716C7.84788 8.60098 8.64621 8.47289 9.39688 8.47289C10.1476 8.47289 10.9459 8.60098 11.7919 8.85716C12.6379 9.11334 13.1919 9.46187 13.4541 9.90274C13.1085 9.90274 12.7809 9.98913 12.4711 10.1619C12.1613 10.3347 11.9051 10.57 11.7025 10.8679C11.4404 11.2492 11.1067 11.5411 10.7016 11.7437C10.2965 11.9462 9.86158 12.0475 9.39688 12.0475ZM3.67749 9.90274C3.08172 9.90274 2.57531 9.69422 2.15827 9.27718C1.74123 8.86014 1.53271 8.35374 1.53271 7.75797C1.53271 7.15028 1.74123 6.6409 2.15827 6.22982C2.57531 5.81873 3.08172 5.61319 3.67749 5.61319C4.28517 5.61319 4.79456 5.81873 5.20564 6.22982C5.61672 6.6409 5.82226 7.15028 5.82226 7.75797C5.82226 8.35374 5.61672 8.86014 5.20564 9.27718C4.79456 9.69422 4.28517 9.90274 3.67749 9.90274ZM15.1163 9.90274C14.5205 9.90274 14.0141 9.69422 13.5971 9.27718C13.18 8.86014 12.9715 8.35374 12.9715 7.75797C12.9715 7.15028 13.18 6.6409 13.5971 6.22982C14.0141 5.81873 14.5205 5.61319 15.1163 5.61319C15.724 5.61319 16.2333 5.81873 16.6444 6.22982C17.0555 6.6409 17.261 7.15028 17.261 7.75797C17.261 8.35374 17.0555 8.86014 16.6444 9.27718C16.2333 9.69422 15.724 9.90274 15.1163 9.90274ZM9.39688 7.75797C8.80111 7.75797 8.29471 7.54945 7.87767 7.13241C7.46063 6.71537 7.25211 6.20896 7.25211 5.61319C7.25211 5.00551 7.46063 4.49613 7.87767 4.08504C8.29471 3.67396 8.80111 3.46842 9.39688 3.46842C10.0046 3.46842 10.5139 3.67396 10.925 4.08504C11.3361 4.49613 11.5417 5.00551 11.5417 5.61319C11.5417 6.20896 11.3361 6.71537 10.925 7.13241C10.5139 7.54945 10.0046 7.75797 9.39688 7.75797Z" fill="#FCA702"/>
</g>
</svg>
