<svg width="366" height="26" viewBox="0 0 366 26" fill="none" xmlns="http://www.w3.org/2000/svg">
<path d="M6.40461 23.4854L8.14724 15.9519L2.30273 10.8849L10.0239 10.2146L13.0266 3.11006L16.0293 10.2146L23.7505 10.8849L17.906 15.9519L19.6486 23.4854L13.0266 19.4908L6.40461 23.4854Z" fill="#FCA702"/>
<path d="M38.5762 23.4854L40.3189 15.9519L34.4744 10.8849L42.1955 10.2146L45.1982 3.11006L48.2009 10.2146L55.9221 10.8849L50.0776 15.9519L51.8202 23.4854L45.1982 19.4908L38.5762 23.4854Z" fill="#FCA702"/>
<path d="M70.7479 23.4854L72.4905 15.9519L66.646 10.8849L74.3672 10.2146L77.3699 3.11006L80.3725 10.2146L88.0937 10.8849L82.2492 15.9519L83.9918 23.4854L77.3699 19.4908L70.7479 23.4854Z" fill="#FCA702"/>
<path d="M102.919 23.4854L104.662 15.9519L98.8175 10.8849L106.539 10.2146L109.541 3.11006L112.544 10.2146L120.265 10.8849L114.421 15.9519L116.163 23.4854L109.541 19.4908L102.919 23.4854Z" fill="#FCA702"/>
<path d="M135.091 23.4854L136.834 15.9519L130.989 10.8849L138.71 10.2146L141.713 3.11006L144.716 10.2146L152.437 10.8849L146.592 15.9519L148.335 23.4854L141.713 19.4908L135.091 23.4854Z" fill="#FCA702"/>
</svg>
