<svg width="31" height="31" viewBox="0 0 31 31" fill="none" xmlns="http://www.w3.org/2000/svg">
<rect x="0.23584" y="0.737419" width="30.0268" height="30.0268" rx="15.0134" fill="#FCA702"/>
<mask id="mask0_147_384" style="mask-type:alpha" maskUnits="userSpaceOnUse" x="4" y="5" width="22" height="22">
<rect x="4.52539" y="5.02695" width="21.4477" height="21.4477" fill="#D9D9D9"/>
</mask>
<g mask="url(#mask0_147_384)">
<path d="M15.2495 23.7937L13.9537 22.632C12.4494 21.2766 11.2057 20.1074 10.2227 19.1244C9.23971 18.1413 8.45776 17.2589 7.87688 16.4769C7.29601 15.695 6.89014 14.9763 6.65928 14.321C6.42842 13.6656 6.31299 12.9954 6.31299 12.3102C6.31299 10.9102 6.78216 9.74099 7.72049 8.80265C8.65883 7.86431 9.82803 7.39514 11.2281 7.39514C12.0026 7.39514 12.7399 7.55898 13.4399 7.88665C14.1399 8.21433 14.7431 8.67605 15.2495 9.27182C15.7559 8.67605 16.3592 8.21433 17.0592 7.88665C17.7592 7.55898 18.4965 7.39514 19.271 7.39514C20.671 7.39514 21.8402 7.86431 22.7786 8.80265C23.7169 9.74099 24.1861 10.9102 24.1861 12.3102C24.1861 12.9954 24.0707 13.6656 23.8398 14.321C23.6089 14.9763 23.2031 15.695 22.6222 16.4769C22.0413 17.2589 21.2594 18.1413 20.2763 19.1244C19.2933 20.1074 18.0497 21.2766 16.5453 22.632L15.2495 23.7937ZM15.2495 21.3808C16.6794 20.0999 17.856 19.0015 18.7795 18.0855C19.7029 17.1695 20.4327 16.3727 20.9689 15.695C21.5051 15.0173 21.8775 14.4141 22.086 13.8853C22.2945 13.3566 22.3988 12.8315 22.3988 12.3102C22.3988 11.4166 22.1009 10.6719 21.5051 10.0761C20.9094 9.48034 20.1646 9.18245 19.271 9.18245C18.571 9.18245 17.9231 9.3798 17.3273 9.7745C16.7315 10.1692 16.3219 10.6719 16.0985 11.2825H14.4006C14.1772 10.6719 13.7676 10.1692 13.1718 9.7745C12.576 9.3798 11.9281 9.18245 11.2281 9.18245C10.3344 9.18245 9.58972 9.48034 8.99395 10.0761C8.39818 10.6719 8.1003 11.4166 8.1003 12.3102C8.1003 12.8315 8.20456 13.3566 8.41308 13.8853C8.6216 14.4141 8.99395 15.0173 9.53015 15.695C10.0663 16.3727 10.7962 17.1695 11.7196 18.0855C12.643 19.0015 13.8197 20.0999 15.2495 21.3808Z" fill="white"/>
</g>
</svg>
